<svg width="1346" height="153" viewBox="0 0 1346 153" fill="none" xmlns="http://www.w3.org/2000/svg">
<path d="M667 8C221.244 25.9439 79.9348 58.1433 65 72" stroke="white" stroke-width="3"/>
<path d="M656 8C849.26 40.5234 910.525 98.8847 917 124" stroke="white" stroke-width="3"/>
<path d="M667 8C1012.05 27.6262 1121.44 62.8442 1133 78" stroke="#F0C260" stroke-width="3" stroke-dasharray="6 6"/>
<path d="M667.414 8C446.2 40.8037 376.073 99.6682 368.661 125" stroke="white" stroke-width="3"/>
<path d="M7.732 100L0.824 84.49H3.882L9.448 97.514H8.524L14.09 84.49H17.038L10.13 100H7.732ZM18.3515 100V88.89H21.1015V100H18.3515ZM18.1975 86.8V84.116H21.2555V86.8H18.1975ZM29.4558 100.22C27.5931 100.22 26.1338 99.7067 25.0778 98.68C24.0218 97.6533 23.4938 96.2453 23.4938 94.456C23.4938 93.2973 23.7211 92.2853 24.1758 91.42C24.6305 90.5547 25.2611 89.88 26.0678 89.396C26.8891 88.912 27.8425 88.67 28.9278 88.67C29.9985 88.67 30.8931 88.8973 31.6118 89.352C32.3305 89.8067 32.8731 90.4447 33.2398 91.266C33.6211 92.0873 33.8118 93.048 33.8118 94.148V94.874H25.7158V93.422H31.8538L31.4798 93.73C31.4798 92.7033 31.2598 91.9187 30.8198 91.376C30.3945 90.8333 29.7711 90.562 28.9498 90.562C28.0405 90.562 27.3365 90.8847 26.8378 91.53C26.3538 92.1753 26.1118 93.0773 26.1118 94.236V94.522C26.1118 95.7247 26.4051 96.6267 26.9918 97.228C27.5931 97.8147 28.4365 98.108 29.5218 98.108C30.1525 98.108 30.7391 98.0273 31.2818 97.866C31.8391 97.69 32.3671 97.4113 32.8658 97.03L33.6798 98.878C33.1518 99.3033 32.5211 99.6333 31.7878 99.868C31.0545 100.103 30.2771 100.22 29.4558 100.22ZM36.1405 100V91.662C36.1405 91.2073 36.1259 90.7453 36.0965 90.276C36.0672 89.8067 36.0232 89.3447 35.9645 88.89H38.6265L38.8465 91.09H38.5825C38.9345 90.3127 39.4552 89.7187 40.1445 89.308C40.8339 88.8827 41.6332 88.67 42.5425 88.67C43.8479 88.67 44.8305 89.0367 45.4905 89.77C46.1505 90.5033 46.4805 91.6473 46.4805 93.202V100H43.7305V93.334C43.7305 92.4393 43.5545 91.8013 43.2025 91.42C42.8652 91.024 42.3519 90.826 41.6625 90.826C40.8119 90.826 40.1372 91.09 39.6385 91.618C39.1399 92.146 38.8905 92.85 38.8905 93.73V100H36.1405ZM49.3964 100V91.662C49.3964 91.2073 49.3817 90.7453 49.3524 90.276C49.3231 89.8067 49.2791 89.3447 49.2204 88.89H51.8824L52.1024 91.09H51.8384C52.1904 90.3127 52.7111 89.7187 53.4004 89.308C54.0897 88.8827 54.8891 88.67 55.7984 88.67C57.1037 88.67 58.0864 89.0367 58.7464 89.77C59.4064 90.5033 59.7364 91.6473 59.7364 93.202V100H56.9864V93.334C56.9864 92.4393 56.8104 91.8013 56.4584 91.42C56.1211 91.024 55.6077 90.826 54.9184 90.826C54.0677 90.826 53.3931 91.09 52.8944 91.618C52.3957 92.146 52.1464 92.85 52.1464 93.73V100H49.3964ZM67.6683 100.22C66.5243 100.22 65.5343 99.9853 64.6983 99.516C63.8623 99.0467 63.2096 98.3793 62.7403 97.514C62.2856 96.6487 62.0583 95.622 62.0583 94.434C62.0583 93.246 62.2856 92.2267 62.7403 91.376C63.2096 90.5107 63.8623 89.8433 64.6983 89.374C65.5343 88.9047 66.5243 88.67 67.6683 88.67C68.8123 88.67 69.8023 88.9047 70.6383 89.374C71.4889 89.8433 72.1416 90.5107 72.5963 91.376C73.0656 92.2267 73.3003 93.246 73.3003 94.434C73.3003 95.622 73.0656 96.6487 72.5963 97.514C72.1416 98.3793 71.4889 99.0467 70.6383 99.516C69.8023 99.9853 68.8123 100.22 67.6683 100.22ZM67.6683 98.108C68.5336 98.108 69.2229 97.8073 69.7363 97.206C70.2496 96.59 70.5063 95.666 70.5063 94.434C70.5063 93.202 70.2496 92.2853 69.7363 91.684C69.2229 91.0827 68.5336 90.782 67.6683 90.782C66.8029 90.782 66.1136 91.0827 65.6003 91.684C65.0869 92.2853 64.8303 93.202 64.8303 94.434C64.8303 95.666 65.0869 96.59 65.6003 97.206C66.1136 97.8073 66.8029 98.108 67.6683 98.108ZM75.6718 100V88.89H78.4218V100H75.6718ZM75.5178 86.8V84.116H78.5758V86.8H75.5178ZM85.3681 100.22C84.4148 100.22 83.5348 100.11 82.7281 99.89C81.9361 99.6553 81.2688 99.3327 80.7261 98.922L81.4961 97.074C82.0534 97.4553 82.6694 97.7487 83.3441 97.954C84.0188 98.1593 84.7008 98.262 85.3901 98.262C86.1234 98.262 86.6661 98.1373 87.0181 97.888C87.3848 97.6387 87.5681 97.3013 87.5681 96.876C87.5681 96.5387 87.4508 96.2747 87.2161 96.084C86.9961 95.8787 86.6368 95.7247 86.1381 95.622L83.9381 95.204C82.9994 94.9987 82.2808 94.6467 81.7821 94.148C81.2981 93.6493 81.0561 92.9967 81.0561 92.19C81.0561 91.5007 81.2394 90.892 81.6061 90.364C81.9874 89.836 82.5228 89.4253 83.2121 89.132C83.9161 88.824 84.7374 88.67 85.6761 88.67C86.4974 88.67 87.2674 88.78 87.9861 89C88.7194 89.22 89.3354 89.55 89.8341 89.99L89.0421 91.772C88.5874 91.4053 88.0668 91.1193 87.4801 90.914C86.8934 90.7087 86.3214 90.606 85.7641 90.606C85.0014 90.606 84.4441 90.7453 84.0921 91.024C83.7401 91.288 83.5641 91.6327 83.5641 92.058C83.5641 92.3807 83.6668 92.652 83.8721 92.872C84.0921 93.0773 84.4294 93.2313 84.8841 93.334L87.0841 93.752C88.0668 93.9427 88.8074 94.28 89.3061 94.764C89.8194 95.2333 90.0761 95.8787 90.0761 96.7C90.0761 97.4333 89.8781 98.064 89.4821 98.592C89.0861 99.12 88.5361 99.5233 87.8321 99.802C87.1281 100.081 86.3068 100.22 85.3681 100.22ZM97.7976 100.22C95.9349 100.22 94.4756 99.7067 93.4196 98.68C92.3636 97.6533 91.8356 96.2453 91.8356 94.456C91.8356 93.2973 92.0629 92.2853 92.5176 91.42C92.9723 90.5547 93.6029 89.88 94.4096 89.396C95.2309 88.912 96.1843 88.67 97.2696 88.67C98.3403 88.67 99.2349 88.8973 99.9536 89.352C100.672 89.8067 101.215 90.4447 101.582 91.266C101.963 92.0873 102.154 93.048 102.154 94.148V94.874H94.0576V93.422H100.196L99.8216 93.73C99.8216 92.7033 99.6016 91.9187 99.1616 91.376C98.7363 90.8333 98.1129 90.562 97.2916 90.562C96.3823 90.562 95.6783 90.8847 95.1796 91.53C94.6956 92.1753 94.4536 93.0773 94.4536 94.236V94.522C94.4536 95.7247 94.7469 96.6267 95.3336 97.228C95.9349 97.8147 96.7783 98.108 97.8636 98.108C98.4943 98.108 99.0809 98.0273 99.6236 97.866C100.181 97.69 100.709 97.4113 101.208 97.03L102.022 98.878C101.494 99.3033 100.863 99.6333 100.13 99.868C99.3963 100.103 98.6189 100.22 97.7976 100.22ZM104.46 100V91.728C104.46 91.2587 104.446 90.782 104.416 90.298C104.402 89.814 104.365 89.3447 104.306 88.89H106.968L107.276 91.926H106.836C106.983 91.1927 107.225 90.584 107.562 90.1C107.914 89.616 108.34 89.2567 108.838 89.022C109.337 88.7873 109.88 88.67 110.466 88.67C110.73 88.67 110.943 88.6847 111.104 88.714C111.266 88.7287 111.427 88.7653 111.588 88.824L111.566 91.244C111.288 91.1267 111.046 91.0533 110.84 91.024C110.65 90.9947 110.408 90.98 110.114 90.98C109.484 90.98 108.948 91.112 108.508 91.376C108.083 91.64 107.76 92.0067 107.54 92.476C107.335 92.9453 107.232 93.4807 107.232 94.082V100H104.46ZM113.119 100V88.89H115.869V100H113.119ZM112.965 86.8V84.116H116.023V86.8H112.965ZM124.223 100.22C122.361 100.22 120.901 99.7067 119.845 98.68C118.789 97.6533 118.261 96.2453 118.261 94.456C118.261 93.2973 118.489 92.2853 118.943 91.42C119.398 90.5547 120.029 89.88 120.835 89.396C121.657 88.912 122.61 88.67 123.695 88.67C124.766 88.67 125.661 88.8973 126.379 89.352C127.098 89.8067 127.641 90.4447 128.007 91.266C128.389 92.0873 128.579 93.048 128.579 94.148V94.874H120.483V93.422H126.621L126.247 93.73C126.247 92.7033 126.027 91.9187 125.587 91.376C125.162 90.8333 124.539 90.562 123.717 90.562C122.808 90.562 122.104 90.8847 121.605 91.53C121.121 92.1753 120.879 93.0773 120.879 94.236V94.522C120.879 95.7247 121.173 96.6267 121.759 97.228C122.361 97.8147 123.204 98.108 124.289 98.108C124.92 98.108 125.507 98.0273 126.049 97.866C126.607 97.69 127.135 97.4113 127.633 97.03L128.447 98.878C127.919 99.3033 127.289 99.6333 126.555 99.868C125.822 100.103 125.045 100.22 124.223 100.22ZM134.868 100.22C133.915 100.22 133.035 100.11 132.228 99.89C131.436 99.6553 130.769 99.3327 130.226 98.922L130.996 97.074C131.553 97.4553 132.169 97.7487 132.844 97.954C133.519 98.1593 134.201 98.262 134.89 98.262C135.623 98.262 136.166 98.1373 136.518 97.888C136.885 97.6387 137.068 97.3013 137.068 96.876C137.068 96.5387 136.951 96.2747 136.716 96.084C136.496 95.8787 136.137 95.7247 135.638 95.622L133.438 95.204C132.499 94.9987 131.781 94.6467 131.282 94.148C130.798 93.6493 130.556 92.9967 130.556 92.19C130.556 91.5007 130.739 90.892 131.106 90.364C131.487 89.836 132.023 89.4253 132.712 89.132C133.416 88.824 134.237 88.67 135.176 88.67C135.997 88.67 136.767 88.78 137.486 89C138.219 89.22 138.835 89.55 139.334 89.99L138.542 91.772C138.087 91.4053 137.567 91.1193 136.98 90.914C136.393 90.7087 135.821 90.606 135.264 90.606C134.501 90.606 133.944 90.7453 133.592 91.024C133.24 91.288 133.064 91.6327 133.064 92.058C133.064 92.3807 133.167 92.652 133.372 92.872C133.592 93.0773 133.929 93.2313 134.384 93.334L136.584 93.752C137.567 93.9427 138.307 94.28 138.806 94.764C139.319 95.2333 139.576 95.8787 139.576 96.7C139.576 97.4333 139.378 98.064 138.982 98.592C138.586 99.12 138.036 99.5233 137.332 99.802C136.628 100.081 135.807 100.22 134.868 100.22Z" fill="white"/>
<path d="M285.716 151V135.49H292.602C294.303 135.49 295.601 135.901 296.496 136.722C297.391 137.543 297.838 138.673 297.838 140.11C297.838 141.533 297.391 142.662 296.496 143.498C295.601 144.334 294.303 144.752 292.602 144.752H288.554V151H285.716ZM288.554 142.508H292.272C293.211 142.508 293.915 142.303 294.384 141.892C294.853 141.467 295.088 140.873 295.088 140.11C295.088 139.347 294.853 138.761 294.384 138.35C293.915 137.925 293.211 137.712 292.272 137.712H288.554V142.508ZM303.923 151.22C302.955 151.22 302.104 150.993 301.371 150.538C300.637 150.069 300.065 149.401 299.655 148.536C299.244 147.671 299.039 146.637 299.039 145.434C299.039 144.231 299.244 143.205 299.655 142.354C300.065 141.489 300.637 140.829 301.371 140.374C302.104 139.905 302.955 139.67 303.923 139.67C304.861 139.67 305.683 139.905 306.387 140.374C307.105 140.829 307.582 141.445 307.817 142.222H307.575L307.817 139.89H310.457C310.413 140.345 310.369 140.807 310.325 141.276C310.295 141.745 310.281 142.207 310.281 142.662V151H307.553L307.531 148.712H307.795C307.56 149.475 307.083 150.083 306.365 150.538C305.646 150.993 304.832 151.22 303.923 151.22ZM304.693 149.108C305.558 149.108 306.255 148.807 306.783 148.206C307.311 147.59 307.575 146.666 307.575 145.434C307.575 144.202 307.311 143.285 306.783 142.684C306.255 142.083 305.558 141.782 304.693 141.782C303.827 141.782 303.131 142.083 302.603 142.684C302.075 143.285 301.811 144.202 301.811 145.434C301.811 146.666 302.067 147.59 302.581 148.206C303.109 148.807 303.813 149.108 304.693 149.108ZM313.275 151V139.89H316.025V151H313.275ZM313.121 137.8V135.116H316.179V137.8H313.121ZM319.012 151V142.662C319.012 142.207 318.997 141.745 318.968 141.276C318.938 140.807 318.894 140.345 318.836 139.89H321.498L321.718 142.09H321.454C321.806 141.313 322.326 140.719 323.016 140.308C323.705 139.883 324.504 139.67 325.414 139.67C326.719 139.67 327.702 140.037 328.362 140.77C329.022 141.503 329.352 142.647 329.352 144.202V151H326.602V144.334C326.602 143.439 326.426 142.801 326.074 142.42C325.736 142.024 325.223 141.826 324.534 141.826C323.683 141.826 323.008 142.09 322.51 142.618C322.011 143.146 321.762 143.85 321.762 144.73V151H319.012ZM336.227 151.22C335.274 151.22 334.394 151.11 333.587 150.89C332.795 150.655 332.128 150.333 331.585 149.922L332.355 148.074C332.913 148.455 333.529 148.749 334.203 148.954C334.878 149.159 335.56 149.262 336.249 149.262C336.983 149.262 337.525 149.137 337.877 148.888C338.244 148.639 338.427 148.301 338.427 147.876C338.427 147.539 338.31 147.275 338.075 147.084C337.855 146.879 337.496 146.725 336.997 146.622L334.797 146.204C333.859 145.999 333.14 145.647 332.641 145.148C332.157 144.649 331.915 143.997 331.915 143.19C331.915 142.501 332.099 141.892 332.465 141.364C332.847 140.836 333.382 140.425 334.071 140.132C334.775 139.824 335.597 139.67 336.535 139.67C337.357 139.67 338.127 139.78 338.845 140C339.579 140.22 340.195 140.55 340.693 140.99L339.901 142.772C339.447 142.405 338.926 142.119 338.339 141.914C337.753 141.709 337.181 141.606 336.623 141.606C335.861 141.606 335.303 141.745 334.951 142.024C334.599 142.288 334.423 142.633 334.423 143.058C334.423 143.381 334.526 143.652 334.731 143.872C334.951 144.077 335.289 144.231 335.743 144.334L337.943 144.752C338.926 144.943 339.667 145.28 340.165 145.764C340.679 146.233 340.935 146.879 340.935 147.7C340.935 148.433 340.737 149.064 340.341 149.592C339.945 150.12 339.395 150.523 338.691 150.802C337.987 151.081 337.166 151.22 336.227 151.22ZM354.078 151.22C352.758 151.22 351.761 150.875 351.086 150.186C350.411 149.497 350.074 148.463 350.074 147.084V141.958H347.94V139.89H350.074V137.052L352.824 136.348V139.89H355.794V141.958H352.824V146.908C352.824 147.671 352.971 148.206 353.264 148.514C353.557 148.822 353.961 148.976 354.474 148.976C354.753 148.976 354.987 148.954 355.178 148.91C355.383 148.866 355.581 148.807 355.772 148.734V150.912C355.523 151.015 355.244 151.088 354.936 151.132C354.643 151.191 354.357 151.22 354.078 151.22ZM357.64 151V142.728C357.64 142.259 357.625 141.782 357.596 141.298C357.581 140.814 357.545 140.345 357.486 139.89H360.148L360.456 142.926H360.016C360.163 142.193 360.405 141.584 360.742 141.1C361.094 140.616 361.519 140.257 362.018 140.022C362.517 139.787 363.059 139.67 363.646 139.67C363.91 139.67 364.123 139.685 364.284 139.714C364.445 139.729 364.607 139.765 364.768 139.824L364.746 142.244C364.467 142.127 364.225 142.053 364.02 142.024C363.829 141.995 363.587 141.98 363.294 141.98C362.663 141.98 362.128 142.112 361.688 142.376C361.263 142.64 360.94 143.007 360.72 143.476C360.515 143.945 360.412 144.481 360.412 145.082V151H357.64ZM370.481 151.22C369.513 151.22 368.663 150.993 367.929 150.538C367.196 150.069 366.624 149.401 366.213 148.536C365.803 147.671 365.597 146.637 365.597 145.434C365.597 144.231 365.803 143.205 366.213 142.354C366.624 141.489 367.196 140.829 367.929 140.374C368.663 139.905 369.513 139.67 370.481 139.67C371.42 139.67 372.241 139.905 372.945 140.374C373.664 140.829 374.141 141.445 374.375 142.222H374.133L374.375 139.89H377.015C376.971 140.345 376.927 140.807 376.883 141.276C376.854 141.745 376.839 142.207 376.839 142.662V151H374.111L374.089 148.712H374.353C374.119 149.475 373.642 150.083 372.923 150.538C372.205 150.993 371.391 151.22 370.481 151.22ZM371.251 149.108C372.117 149.108 372.813 148.807 373.341 148.206C373.869 147.59 374.133 146.666 374.133 145.434C374.133 144.202 373.869 143.285 373.341 142.684C372.813 142.083 372.117 141.782 371.251 141.782C370.386 141.782 369.689 142.083 369.161 142.684C368.633 143.285 368.369 144.202 368.369 145.434C368.369 146.666 368.626 147.59 369.139 148.206C369.667 148.807 370.371 149.108 371.251 149.108ZM384.146 151.22C383.178 151.22 382.32 150.993 381.572 150.538C380.839 150.069 380.267 149.401 379.856 148.536C379.445 147.671 379.24 146.637 379.24 145.434C379.24 144.231 379.445 143.205 379.856 142.354C380.267 141.489 380.839 140.829 381.572 140.374C382.32 139.905 383.178 139.67 384.146 139.67C385.07 139.67 385.884 139.897 386.588 140.352C387.307 140.792 387.783 141.393 388.018 142.156H387.732V134.808H390.482V151H387.776V148.646H388.04C387.805 149.438 387.329 150.069 386.61 150.538C385.906 150.993 385.085 151.22 384.146 151.22ZM384.916 149.108C385.781 149.108 386.478 148.807 387.006 148.206C387.534 147.59 387.798 146.666 387.798 145.434C387.798 144.202 387.534 143.285 387.006 142.684C386.478 142.083 385.781 141.782 384.916 141.782C384.051 141.782 383.347 142.083 382.804 142.684C382.276 143.285 382.012 144.202 382.012 145.434C382.012 146.666 382.276 147.59 382.804 148.206C383.347 148.807 384.051 149.108 384.916 149.108ZM393.476 151V139.89H396.226V151H393.476ZM393.322 137.8V135.116H396.38V137.8H393.322ZM403.965 151.22C402.645 151.22 401.647 150.875 400.973 150.186C400.298 149.497 399.961 148.463 399.961 147.084V141.958H397.827V139.89H399.961V137.052L402.711 136.348V139.89H405.681V141.958H402.711V146.908C402.711 147.671 402.857 148.206 403.151 148.514C403.444 148.822 403.847 148.976 404.361 148.976C404.639 148.976 404.874 148.954 405.065 148.91C405.27 148.866 405.468 148.807 405.659 148.734V150.912C405.409 151.015 405.131 151.088 404.823 151.132C404.529 151.191 404.243 151.22 403.965 151.22ZM407.549 151V139.89H410.299V151H407.549ZM407.395 137.8V135.116H410.453V137.8H407.395ZM418.301 151.22C417.157 151.22 416.167 150.985 415.331 150.516C414.495 150.047 413.842 149.379 413.373 148.514C412.918 147.649 412.691 146.622 412.691 145.434C412.691 144.246 412.918 143.227 413.373 142.376C413.842 141.511 414.495 140.843 415.331 140.374C416.167 139.905 417.157 139.67 418.301 139.67C419.445 139.67 420.435 139.905 421.271 140.374C422.122 140.843 422.774 141.511 423.229 142.376C423.698 143.227 423.933 144.246 423.933 145.434C423.933 146.622 423.698 147.649 423.229 148.514C422.774 149.379 422.122 150.047 421.271 150.516C420.435 150.985 419.445 151.22 418.301 151.22ZM418.301 149.108C419.166 149.108 419.856 148.807 420.369 148.206C420.882 147.59 421.139 146.666 421.139 145.434C421.139 144.202 420.882 143.285 420.369 142.684C419.856 142.083 419.166 141.782 418.301 141.782C417.436 141.782 416.746 142.083 416.233 142.684C415.72 143.285 415.463 144.202 415.463 145.434C415.463 146.666 415.72 147.59 416.233 148.206C416.746 148.807 417.436 149.108 418.301 149.108ZM426.305 151V142.662C426.305 142.207 426.29 141.745 426.261 141.276C426.231 140.807 426.187 140.345 426.129 139.89H428.791L429.011 142.09H428.747C429.099 141.313 429.619 140.719 430.309 140.308C430.998 139.883 431.797 139.67 432.707 139.67C434.012 139.67 434.995 140.037 435.655 140.77C436.315 141.503 436.645 142.647 436.645 144.202V151H433.895V144.334C433.895 143.439 433.719 142.801 433.367 142.42C433.029 142.024 432.516 141.826 431.827 141.826C430.976 141.826 430.301 142.09 429.803 142.618C429.304 143.146 429.055 143.85 429.055 144.73V151H426.305ZM439.56 151V142.662C439.56 142.207 439.546 141.745 439.516 141.276C439.487 140.807 439.443 140.345 439.384 139.89H442.046L442.266 142.09H442.002C442.354 141.313 442.875 140.719 443.564 140.308C444.254 139.883 445.053 139.67 445.962 139.67C447.268 139.67 448.25 140.037 448.91 140.77C449.57 141.503 449.9 142.647 449.9 144.202V151H447.15V144.334C447.15 143.439 446.974 142.801 446.622 142.42C446.285 142.024 445.772 141.826 445.082 141.826C444.232 141.826 443.557 142.09 443.058 142.618C442.56 143.146 442.31 143.85 442.31 144.73V151H439.56ZM458.184 151.22C456.322 151.22 454.862 150.707 453.806 149.68C452.75 148.653 452.222 147.245 452.222 145.456C452.222 144.297 452.45 143.285 452.904 142.42C453.359 141.555 453.99 140.88 454.796 140.396C455.618 139.912 456.571 139.67 457.656 139.67C458.727 139.67 459.622 139.897 460.34 140.352C461.059 140.807 461.602 141.445 461.968 142.266C462.35 143.087 462.54 144.048 462.54 145.148V145.874H454.444V144.422H460.582L460.208 144.73C460.208 143.703 459.988 142.919 459.548 142.376C459.123 141.833 458.5 141.562 457.678 141.562C456.769 141.562 456.065 141.885 455.566 142.53C455.082 143.175 454.84 144.077 454.84 145.236V145.522C454.84 146.725 455.134 147.627 455.72 148.228C456.322 148.815 457.165 149.108 458.25 149.108C458.881 149.108 459.468 149.027 460.01 148.866C460.568 148.69 461.096 148.411 461.594 148.03L462.408 149.878C461.88 150.303 461.25 150.633 460.516 150.868C459.783 151.103 459.006 151.22 458.184 151.22ZM464.869 151V134.808H467.619V151H464.869ZM474.565 151.22C473.612 151.22 472.732 151.11 471.925 150.89C471.133 150.655 470.466 150.333 469.923 149.922L470.693 148.074C471.251 148.455 471.867 148.749 472.541 148.954C473.216 149.159 473.898 149.262 474.587 149.262C475.321 149.262 475.863 149.137 476.215 148.888C476.582 148.639 476.765 148.301 476.765 147.876C476.765 147.539 476.648 147.275 476.413 147.084C476.193 146.879 475.834 146.725 475.335 146.622L473.135 146.204C472.197 145.999 471.478 145.647 470.979 145.148C470.495 144.649 470.253 143.997 470.253 143.19C470.253 142.501 470.437 141.892 470.803 141.364C471.185 140.836 471.72 140.425 472.409 140.132C473.113 139.824 473.935 139.67 474.873 139.67C475.695 139.67 476.465 139.78 477.183 140C477.917 140.22 478.533 140.55 479.031 140.99L478.239 142.772C477.785 142.405 477.264 142.119 476.677 141.914C476.091 141.709 475.519 141.606 474.961 141.606C474.199 141.606 473.641 141.745 473.289 142.024C472.937 142.288 472.761 142.633 472.761 143.058C472.761 143.381 472.864 143.652 473.069 143.872C473.289 144.077 473.627 144.231 474.081 144.334L476.281 144.752C477.264 144.943 478.005 145.28 478.503 145.764C479.017 146.233 479.273 146.879 479.273 147.7C479.273 148.433 479.075 149.064 478.679 149.592C478.283 150.12 477.733 150.523 477.029 150.802C476.325 151.081 475.504 151.22 474.565 151.22Z" fill="white"/>
<path d="M883.196 152.22C881.451 152.22 879.984 151.897 878.796 151.252C877.608 150.607 876.713 149.69 876.112 148.502C875.511 147.314 875.21 145.906 875.21 144.278C875.21 142.635 875.533 141.22 876.178 140.032C876.823 138.829 877.747 137.905 878.95 137.26C880.167 136.6 881.627 136.27 883.328 136.27C884.457 136.27 885.447 136.424 886.298 136.732C887.149 137.025 887.897 137.458 888.542 138.03L887.596 140.23C887.127 139.863 886.679 139.57 886.254 139.35C885.829 139.13 885.389 138.976 884.934 138.888C884.479 138.785 883.951 138.734 883.35 138.734C881.649 138.734 880.358 139.218 879.478 140.186C878.613 141.139 878.18 142.511 878.18 144.3C878.18 146.089 878.591 147.453 879.412 148.392C880.248 149.331 881.553 149.8 883.328 149.8C883.929 149.8 884.531 149.741 885.132 149.624C885.748 149.507 886.349 149.338 886.936 149.118L886.408 150.306V145.664H882.778V143.596H888.762V151.054C888.043 151.421 887.185 151.707 886.188 151.912C885.191 152.117 884.193 152.22 883.196 152.22ZM896.071 152.22C895.103 152.22 894.252 151.993 893.519 151.538C892.786 151.069 892.214 150.401 891.803 149.536C891.392 148.671 891.187 147.637 891.187 146.434C891.187 145.231 891.392 144.205 891.803 143.354C892.214 142.489 892.786 141.829 893.519 141.374C894.252 140.905 895.103 140.67 896.071 140.67C897.01 140.67 897.831 140.905 898.535 141.374C899.254 141.829 899.73 142.445 899.965 143.222H899.723L899.965 140.89H902.605C902.561 141.345 902.517 141.807 902.473 142.276C902.444 142.745 902.429 143.207 902.429 143.662V152H899.701L899.679 149.712H899.943C899.708 150.475 899.232 151.083 898.513 151.538C897.794 151.993 896.98 152.22 896.071 152.22ZM896.841 150.108C897.706 150.108 898.403 149.807 898.931 149.206C899.459 148.59 899.723 147.666 899.723 146.434C899.723 145.202 899.459 144.285 898.931 143.684C898.403 143.083 897.706 142.782 896.841 142.782C895.976 142.782 895.279 143.083 894.751 143.684C894.223 144.285 893.959 145.202 893.959 146.434C893.959 147.666 894.216 148.59 894.729 149.206C895.257 149.807 895.961 150.108 896.841 150.108ZM893.365 139.812L895.785 135.346H898.205L900.625 139.812H898.887L896.995 136.908L895.103 139.812H893.365ZM910.176 152.22C908.856 152.22 907.858 151.875 907.184 151.186C906.509 150.497 906.172 149.463 906.172 148.084V142.958H904.038V140.89H906.172V138.052L908.922 137.348V140.89H911.892V142.958H908.922V147.908C908.922 148.671 909.068 149.206 909.362 149.514C909.655 149.822 910.058 149.976 910.572 149.976C910.85 149.976 911.085 149.954 911.276 149.91C911.481 149.866 911.679 149.807 911.87 149.734V151.912C911.62 152.015 911.342 152.088 911.034 152.132C910.74 152.191 910.454 152.22 910.176 152.22ZM919.02 152.22C917.158 152.22 915.698 151.707 914.642 150.68C913.586 149.653 913.058 148.245 913.058 146.456C913.058 145.297 913.286 144.285 913.74 143.42C914.195 142.555 914.826 141.88 915.632 141.396C916.454 140.912 917.407 140.67 918.492 140.67C919.563 140.67 920.458 140.897 921.176 141.352C921.895 141.807 922.438 142.445 922.804 143.266C923.186 144.087 923.376 145.048 923.376 146.148V146.874H915.28V145.422H921.418L921.044 145.73C921.044 144.703 920.824 143.919 920.384 143.376C919.959 142.833 919.336 142.562 918.514 142.562C917.605 142.562 916.901 142.885 916.402 143.53C915.918 144.175 915.676 145.077 915.676 146.236V146.522C915.676 147.725 915.97 148.627 916.556 149.228C917.158 149.815 918.001 150.108 919.086 150.108C919.717 150.108 920.304 150.027 920.846 149.866C921.404 149.69 921.932 149.411 922.43 149.03L923.244 150.878C922.716 151.303 922.086 151.633 921.352 151.868C920.619 152.103 919.842 152.22 919.02 152.22ZM929.995 152.22C929.027 152.22 928.176 151.993 927.443 151.538C926.71 151.069 926.138 150.401 925.727 149.536C925.316 148.671 925.111 147.637 925.111 146.434C925.111 145.231 925.316 144.205 925.727 143.354C926.138 142.489 926.71 141.829 927.443 141.374C928.176 140.905 929.027 140.67 929.995 140.67C930.934 140.67 931.755 140.905 932.459 141.374C933.178 141.829 933.654 142.445 933.889 143.222H933.647L933.889 140.89H936.529C936.485 141.345 936.441 141.807 936.397 142.276C936.368 142.745 936.353 143.207 936.353 143.662V152H933.625L933.603 149.712H933.867C933.632 150.475 933.156 151.083 932.437 151.538C931.718 151.993 930.904 152.22 929.995 152.22ZM930.765 150.108C931.63 150.108 932.327 149.807 932.855 149.206C933.383 148.59 933.647 147.666 933.647 146.434C933.647 145.202 933.383 144.285 932.855 143.684C932.327 143.083 931.63 142.782 930.765 142.782C929.9 142.782 929.203 143.083 928.675 143.684C928.147 144.285 927.883 145.202 927.883 146.434C927.883 147.666 928.14 148.59 928.653 149.206C929.181 149.807 929.885 150.108 930.765 150.108ZM943.352 152.22C941.988 152.22 940.968 151.846 940.294 151.098C939.619 150.35 939.282 149.206 939.282 147.666V140.89H942.032V147.644C942.032 148.465 942.2 149.074 942.538 149.47C942.875 149.851 943.388 150.042 944.078 150.042C944.855 150.042 945.486 149.778 945.97 149.25C946.468 148.722 946.718 148.025 946.718 147.16V140.89H949.468V152H946.784V149.734H947.092C946.769 150.526 946.278 151.142 945.618 151.582C944.972 152.007 944.217 152.22 943.352 152.22ZM950.737 152L955.907 145.642V146.896L951.023 140.89H954.279L957.469 145.004H956.479L959.669 140.89H962.903L958.063 146.896V145.642L963.211 152H959.933L956.479 147.578H957.469L953.993 152H950.737Z" fill="white"/>
<path d="M1151.56 102V87.9H1157.82C1159.37 87.9 1160.55 88.2733 1161.36 89.02C1162.17 89.7667 1162.58 90.7933 1162.58 92.1C1162.58 93.3933 1162.17 94.42 1161.36 95.18C1160.55 95.94 1159.37 96.32 1157.82 96.32H1154.14V102H1151.56ZM1154.14 94.28H1157.52C1158.37 94.28 1159.01 94.0933 1159.44 93.72C1159.87 93.3333 1160.08 92.7933 1160.08 92.1C1160.08 91.4067 1159.87 90.8733 1159.44 90.5C1159.01 90.1133 1158.37 89.92 1157.52 89.92H1154.14V94.28ZM1168.58 102.2C1167.7 102.2 1166.93 101.993 1166.26 101.58C1165.59 101.153 1165.07 100.547 1164.7 99.76C1164.33 98.9733 1164.14 98.0333 1164.14 96.94C1164.14 95.8467 1164.33 94.9133 1164.7 94.14C1165.07 93.3533 1165.59 92.7533 1166.26 92.34C1166.93 91.9133 1167.7 91.7 1168.58 91.7C1169.43 91.7 1170.18 91.9133 1170.82 92.34C1171.47 92.7533 1171.91 93.3133 1172.12 94.02H1171.9L1172.12 91.9H1174.52C1174.48 92.3133 1174.44 92.7333 1174.4 93.16C1174.37 93.5867 1174.36 94.0067 1174.36 94.42V102H1171.88L1171.86 99.92H1172.1C1171.89 100.613 1171.45 101.167 1170.8 101.58C1170.15 101.993 1169.41 102.2 1168.58 102.2ZM1169.28 100.28C1170.07 100.28 1170.7 100.007 1171.18 99.46C1171.66 98.9 1171.9 98.06 1171.9 96.94C1171.9 95.82 1171.66 94.9867 1171.18 94.44C1170.7 93.8933 1170.07 93.62 1169.28 93.62C1168.49 93.62 1167.86 93.8933 1167.38 94.44C1166.9 94.9867 1166.66 95.82 1166.66 96.94C1166.66 98.06 1166.89 98.9 1167.36 99.46C1167.84 100.007 1168.48 100.28 1169.28 100.28ZM1166.12 90.92L1168.32 86.86H1170.52L1172.72 90.92H1171.14L1169.42 88.28L1167.7 90.92H1166.12ZM1181.4 102.2C1180.2 102.2 1179.3 101.887 1178.68 101.26C1178.07 100.633 1177.76 99.6933 1177.76 98.44V93.78H1175.82V91.9H1177.76V89.32L1180.26 88.68V91.9H1182.96V93.78H1180.26V98.28C1180.26 98.9733 1180.4 99.46 1180.66 99.74C1180.93 100.02 1181.3 100.16 1181.76 100.16C1182.02 100.16 1182.23 100.14 1182.4 100.1C1182.59 100.06 1182.77 100.007 1182.94 99.94V101.92C1182.72 102.013 1182.46 102.08 1182.18 102.12C1181.92 102.173 1181.66 102.2 1181.4 102.2ZM1184.66 102V91.9H1187.16V102H1184.66ZM1184.52 90V87.56H1187.3V90H1184.52ZM1193.48 102.2C1192.61 102.2 1191.81 102.1 1191.08 101.9C1190.36 101.687 1189.75 101.393 1189.26 101.02L1189.96 99.34C1190.46 99.6867 1191.02 99.9533 1191.64 100.14C1192.25 100.327 1192.87 100.42 1193.5 100.42C1194.16 100.42 1194.66 100.307 1194.98 100.08C1195.31 99.8533 1195.48 99.5467 1195.48 99.16C1195.48 98.8533 1195.37 98.6133 1195.16 98.44C1194.96 98.2533 1194.63 98.1133 1194.18 98.02L1192.18 97.64C1191.32 97.4533 1190.67 97.1333 1190.22 96.68C1189.78 96.2267 1189.56 95.6333 1189.56 94.9C1189.56 94.2733 1189.72 93.72 1190.06 93.24C1190.4 92.76 1190.89 92.3867 1191.52 92.12C1192.16 91.84 1192.9 91.7 1193.76 91.7C1194.5 91.7 1195.2 91.8 1195.86 92C1196.52 92.2 1197.08 92.5 1197.54 92.9L1196.82 94.52C1196.4 94.1867 1195.93 93.9267 1195.4 93.74C1194.86 93.5533 1194.34 93.46 1193.84 93.46C1193.14 93.46 1192.64 93.5867 1192.32 93.84C1192 94.08 1191.84 94.3933 1191.84 94.78C1191.84 95.0733 1191.93 95.32 1192.12 95.52C1192.32 95.7067 1192.62 95.8467 1193.04 95.94L1195.04 96.32C1195.93 96.4933 1196.6 96.8 1197.06 97.24C1197.52 97.6667 1197.76 98.2533 1197.76 99C1197.76 99.6667 1197.58 100.24 1197.22 100.72C1196.86 101.2 1196.36 101.567 1195.72 101.82C1195.08 102.073 1194.33 102.2 1193.48 102.2ZM1203.5 102.2C1202.63 102.2 1201.83 102.1 1201.1 101.9C1200.38 101.687 1199.77 101.393 1199.28 101.02L1199.98 99.34C1200.48 99.6867 1201.04 99.9533 1201.66 100.14C1202.27 100.327 1202.89 100.42 1203.52 100.42C1204.18 100.42 1204.68 100.307 1205 100.08C1205.33 99.8533 1205.5 99.5467 1205.5 99.16C1205.5 98.8533 1205.39 98.6133 1205.18 98.44C1204.98 98.2533 1204.65 98.1133 1204.2 98.02L1202.2 97.64C1201.34 97.4533 1200.69 97.1333 1200.24 96.68C1199.8 96.2267 1199.58 95.6333 1199.58 94.9C1199.58 94.2733 1199.74 93.72 1200.08 93.24C1200.42 92.76 1200.91 92.3867 1201.54 92.12C1202.18 91.84 1202.92 91.7 1203.78 91.7C1204.52 91.7 1205.22 91.8 1205.88 92C1206.54 92.2 1207.1 92.5 1207.56 92.9L1206.84 94.52C1206.42 94.1867 1205.95 93.9267 1205.42 93.74C1204.88 93.5533 1204.36 93.46 1203.86 93.46C1203.16 93.46 1202.66 93.5867 1202.34 93.84C1202.02 94.08 1201.86 94.3933 1201.86 94.78C1201.86 95.0733 1201.95 95.32 1202.14 95.52C1202.34 95.7067 1202.64 95.8467 1203.06 95.94L1205.06 96.32C1205.95 96.4933 1206.62 96.8 1207.08 97.24C1207.54 97.6667 1207.78 98.2533 1207.78 99C1207.78 99.6667 1207.6 100.24 1207.24 100.72C1206.88 101.2 1206.38 101.567 1205.74 101.82C1205.1 102.073 1204.35 102.2 1203.5 102.2ZM1214.79 102.2C1213.1 102.2 1211.77 101.733 1210.81 100.8C1209.85 99.8667 1209.37 98.5867 1209.37 96.96C1209.37 95.9067 1209.58 94.9867 1209.99 94.2C1210.41 93.4133 1210.98 92.8 1211.71 92.36C1212.46 91.92 1213.33 91.7 1214.31 91.7C1215.29 91.7 1216.1 91.9067 1216.75 92.32C1217.41 92.7333 1217.9 93.3133 1218.23 94.06C1218.58 94.8067 1218.75 95.68 1218.75 96.68V97.34H1211.39V96.02H1216.97L1216.63 96.3C1216.63 95.3667 1216.43 94.6533 1216.03 94.16C1215.65 93.6667 1215.08 93.42 1214.33 93.42C1213.51 93.42 1212.87 93.7133 1212.41 94.3C1211.97 94.8867 1211.75 95.7067 1211.75 96.76V97.02C1211.75 98.1133 1212.02 98.9333 1212.55 99.48C1213.1 100.013 1213.87 100.28 1214.85 100.28C1215.43 100.28 1215.96 100.207 1216.45 100.06C1216.96 99.9 1217.44 99.6467 1217.89 99.3L1218.63 100.98C1218.15 101.367 1217.58 101.667 1216.91 101.88C1216.25 102.093 1215.54 102.2 1214.79 102.2ZM1220.85 102V94.48C1220.85 94.0533 1220.84 93.62 1220.81 93.18C1220.8 92.74 1220.77 92.3133 1220.71 91.9H1223.13L1223.41 94.66H1223.01C1223.15 93.9933 1223.37 93.44 1223.67 93C1223.99 92.56 1224.38 92.2333 1224.83 92.02C1225.29 91.8067 1225.78 91.7 1226.31 91.7C1226.55 91.7 1226.75 91.7133 1226.89 91.74C1227.04 91.7533 1227.19 91.7867 1227.33 91.84L1227.31 94.04C1227.06 93.9333 1226.84 93.8667 1226.65 93.84C1226.48 93.8133 1226.26 93.8 1225.99 93.8C1225.42 93.8 1224.93 93.92 1224.53 94.16C1224.15 94.4 1223.85 94.7333 1223.65 95.16C1223.47 95.5867 1223.37 96.0733 1223.37 96.62V102H1220.85ZM1228.72 102V91.9H1231.22V102H1228.72ZM1228.58 90V87.56H1231.36V90H1228.58ZM1238.82 102.2C1237.12 102.2 1235.8 101.733 1234.84 100.8C1233.88 99.8667 1233.4 98.5867 1233.4 96.96C1233.4 95.9067 1233.6 94.9867 1234.02 94.2C1234.43 93.4133 1235 92.8 1235.74 92.36C1236.48 91.92 1237.35 91.7 1238.34 91.7C1239.31 91.7 1240.12 91.9067 1240.78 92.32C1241.43 92.7333 1241.92 93.3133 1242.26 94.06C1242.6 94.8067 1242.78 95.68 1242.78 96.68V97.34H1235.42V96.02H1241L1240.66 96.3C1240.66 95.3667 1240.46 94.6533 1240.06 94.16C1239.67 93.6667 1239.1 93.42 1238.36 93.42C1237.53 93.42 1236.89 93.7133 1236.44 94.3C1236 94.8867 1235.78 95.7067 1235.78 96.76V97.02C1235.78 98.1133 1236.04 98.9333 1236.58 99.48C1237.12 100.013 1237.89 100.28 1238.88 100.28C1239.45 100.28 1239.98 100.207 1240.48 100.06C1240.98 99.9 1241.46 99.6467 1241.92 99.3L1242.66 100.98C1242.18 101.367 1241.6 101.667 1240.94 101.88C1240.27 102.093 1239.56 102.2 1238.82 102.2ZM1248.5 102.2C1247.63 102.2 1246.83 102.1 1246.1 101.9C1245.38 101.687 1244.77 101.393 1244.28 101.02L1244.98 99.34C1245.48 99.6867 1246.04 99.9533 1246.66 100.14C1247.27 100.327 1247.89 100.42 1248.52 100.42C1249.18 100.42 1249.68 100.307 1250 100.08C1250.33 99.8533 1250.5 99.5467 1250.5 99.16C1250.5 98.8533 1250.39 98.6133 1250.18 98.44C1249.98 98.2533 1249.65 98.1133 1249.2 98.02L1247.2 97.64C1246.34 97.4533 1245.69 97.1333 1245.24 96.68C1244.8 96.2267 1244.58 95.6333 1244.58 94.9C1244.58 94.2733 1244.74 93.72 1245.08 93.24C1245.42 92.76 1245.91 92.3867 1246.54 92.12C1247.18 91.84 1247.92 91.7 1248.78 91.7C1249.52 91.7 1250.22 91.8 1250.88 92C1251.54 92.2 1252.1 92.5 1252.56 92.9L1251.84 94.52C1251.42 94.1867 1250.95 93.9267 1250.42 93.74C1249.88 93.5533 1249.36 93.46 1248.86 93.46C1248.16 93.46 1247.66 93.5867 1247.34 93.84C1247.02 94.08 1246.86 94.3933 1246.86 94.78C1246.86 95.0733 1246.95 95.32 1247.14 95.52C1247.34 95.7067 1247.64 95.8467 1248.06 95.94L1250.06 96.32C1250.95 96.4933 1251.62 96.8 1252.08 97.24C1252.54 97.6667 1252.78 98.2533 1252.78 99C1252.78 99.6667 1252.6 100.24 1252.24 100.72C1251.88 101.2 1251.38 101.567 1250.74 101.82C1250.1 102.073 1249.35 102.2 1248.5 102.2ZM1264 102.2C1263.14 102.2 1262.34 102.1 1261.6 101.9C1260.88 101.687 1260.28 101.393 1259.78 101.02L1260.48 99.34C1260.99 99.6867 1261.55 99.9533 1262.16 100.14C1262.78 100.327 1263.4 100.42 1264.02 100.42C1264.69 100.42 1265.18 100.307 1265.5 100.08C1265.84 99.8533 1266 99.5467 1266 99.16C1266 98.8533 1265.9 98.6133 1265.68 98.44C1265.48 98.2533 1265.16 98.1133 1264.7 98.02L1262.7 97.64C1261.85 97.4533 1261.2 97.1333 1260.74 96.68C1260.3 96.2267 1260.08 95.6333 1260.08 94.9C1260.08 94.2733 1260.25 93.72 1260.58 93.24C1260.93 92.76 1261.42 92.3867 1262.04 92.12C1262.68 91.84 1263.43 91.7 1264.28 91.7C1265.03 91.7 1265.73 91.8 1266.38 92C1267.05 92.2 1267.61 92.5 1268.06 92.9L1267.34 94.52C1266.93 94.1867 1266.46 93.9267 1265.92 93.74C1265.39 93.5533 1264.87 93.46 1264.36 93.46C1263.67 93.46 1263.16 93.5867 1262.84 93.84C1262.52 94.08 1262.36 94.3933 1262.36 94.78C1262.36 95.0733 1262.46 95.32 1262.64 95.52C1262.84 95.7067 1263.15 95.8467 1263.56 95.94L1265.56 96.32C1266.46 96.4933 1267.13 96.8 1267.58 97.24C1268.05 97.6667 1268.28 98.2533 1268.28 99C1268.28 99.6667 1268.1 100.24 1267.74 100.72C1267.38 101.2 1266.88 101.567 1266.24 101.82C1265.6 102.073 1264.86 102.2 1264 102.2ZM1274.06 102.2C1272.82 102.2 1271.9 101.86 1271.28 101.18C1270.67 100.5 1270.36 99.46 1270.36 98.06V91.9H1272.86V98.04C1272.86 98.7867 1273.02 99.34 1273.32 99.7C1273.63 100.047 1274.1 100.22 1274.72 100.22C1275.43 100.22 1276 99.98 1276.44 99.5C1276.9 99.02 1277.12 98.3867 1277.12 97.6V91.9H1279.62V102H1277.18V99.94H1277.46C1277.17 100.66 1276.72 101.22 1276.12 101.62C1275.54 102.007 1274.85 102.2 1274.06 102.2ZM1286.98 102.2C1285.94 102.2 1285.02 101.987 1284.24 101.56C1283.46 101.133 1282.86 100.527 1282.44 99.74C1282.01 98.94 1281.8 97.9933 1281.8 96.9C1281.8 95.8067 1282.01 94.8733 1282.44 94.1C1282.88 93.3267 1283.48 92.7333 1284.26 92.32C1285.03 91.9067 1285.94 91.7 1286.98 91.7C1287.64 91.7 1288.29 91.8067 1288.92 92.02C1289.56 92.22 1290.08 92.5133 1290.48 92.9L1289.72 94.64C1289.36 94.3067 1288.95 94.06 1288.5 93.9C1288.06 93.7267 1287.62 93.64 1287.2 93.64C1286.3 93.64 1285.6 93.92 1285.1 94.48C1284.6 95.04 1284.36 95.8533 1284.36 96.92C1284.36 97.9867 1284.6 98.8067 1285.1 99.38C1285.6 99.9533 1286.3 100.24 1287.2 100.24C1287.61 100.24 1288.04 100.16 1288.48 100C1288.93 99.84 1289.34 99.5933 1289.72 99.26L1290.48 100.98C1290.06 101.367 1289.54 101.667 1288.9 101.88C1288.27 102.093 1287.63 102.2 1286.98 102.2ZM1292.39 102V94.48C1292.39 94.0533 1292.38 93.62 1292.35 93.18C1292.34 92.74 1292.31 92.3133 1292.25 91.9H1294.67L1294.95 94.66H1294.55C1294.69 93.9933 1294.91 93.44 1295.21 93C1295.53 92.56 1295.92 92.2333 1296.37 92.02C1296.83 91.8067 1297.32 91.7 1297.85 91.7C1298.09 91.7 1298.29 91.7133 1298.43 91.74C1298.58 91.7533 1298.73 91.7867 1298.87 91.84L1298.85 94.04C1298.6 93.9333 1298.38 93.8667 1298.19 93.84C1298.02 93.8133 1297.8 93.8 1297.53 93.8C1296.96 93.8 1296.47 93.92 1296.07 94.16C1295.69 94.4 1295.39 94.7333 1295.19 95.16C1295.01 95.5867 1294.91 96.0733 1294.91 96.62V102H1292.39ZM1304.99 102.2C1303.3 102.2 1301.97 101.733 1301.01 100.8C1300.05 99.8667 1299.57 98.5867 1299.57 96.96C1299.57 95.9067 1299.78 94.9867 1300.19 94.2C1300.6 93.4133 1301.18 92.8 1301.91 92.36C1302.66 91.92 1303.52 91.7 1304.51 91.7C1305.48 91.7 1306.3 91.9067 1306.95 92.32C1307.6 92.7333 1308.1 93.3133 1308.43 94.06C1308.78 94.8067 1308.95 95.68 1308.95 96.68V97.34H1301.59V96.02H1307.17L1306.83 96.3C1306.83 95.3667 1306.63 94.6533 1306.23 94.16C1305.84 93.6667 1305.28 93.42 1304.53 93.42C1303.7 93.42 1303.06 93.7133 1302.61 94.3C1302.17 94.8867 1301.95 95.7067 1301.95 96.76V97.02C1301.95 98.1133 1302.22 98.9333 1302.75 99.48C1303.3 100.013 1304.06 100.28 1305.05 100.28C1305.62 100.28 1306.16 100.207 1306.65 100.06C1307.16 99.9 1307.64 99.6467 1308.09 99.3L1308.83 100.98C1308.35 101.367 1307.78 101.667 1307.11 101.88C1306.44 102.093 1305.74 102.2 1304.99 102.2ZM1303.67 90.92L1305.73 86.86H1308.19L1305.35 90.92H1303.67ZM1315.95 102.2C1314.25 102.2 1312.93 101.733 1311.97 100.8C1311.01 99.8667 1310.53 98.5867 1310.53 96.96C1310.53 95.9067 1310.73 94.9867 1311.15 94.2C1311.56 93.4133 1312.13 92.8 1312.87 92.36C1313.61 91.92 1314.48 91.7 1315.47 91.7C1316.44 91.7 1317.25 91.9067 1317.91 92.32C1318.56 92.7333 1319.05 93.3133 1319.39 94.06C1319.73 94.8067 1319.91 95.68 1319.91 96.68V97.34H1312.55V96.02H1318.13L1317.79 96.3C1317.79 95.3667 1317.59 94.6533 1317.19 94.16C1316.8 93.6667 1316.23 93.42 1315.49 93.42C1314.66 93.42 1314.02 93.7133 1313.57 94.3C1313.13 94.8867 1312.91 95.7067 1312.91 96.76V97.02C1312.91 98.1133 1313.17 98.9333 1313.71 99.48C1314.25 100.013 1315.02 100.28 1316.01 100.28C1316.58 100.28 1317.11 100.207 1317.61 100.06C1318.11 99.9 1318.59 99.6467 1319.05 99.3L1319.79 100.98C1319.31 101.367 1318.73 101.667 1318.07 101.88C1317.4 102.093 1316.69 102.2 1315.95 102.2ZM1325.62 102.2C1324.76 102.2 1323.96 102.1 1323.22 101.9C1322.5 101.687 1321.9 101.393 1321.4 101.02L1322.1 99.34C1322.61 99.6867 1323.17 99.9533 1323.78 100.14C1324.4 100.327 1325.02 100.42 1325.64 100.42C1326.31 100.42 1326.8 100.307 1327.12 100.08C1327.46 99.8533 1327.62 99.5467 1327.62 99.16C1327.62 98.8533 1327.52 98.6133 1327.3 98.44C1327.1 98.2533 1326.78 98.1133 1326.32 98.02L1324.32 97.64C1323.47 97.4533 1322.82 97.1333 1322.36 96.68C1321.92 96.2267 1321.7 95.6333 1321.7 94.9C1321.7 94.2733 1321.87 93.72 1322.2 93.24C1322.55 92.76 1323.04 92.3867 1323.66 92.12C1324.3 91.84 1325.05 91.7 1325.9 91.7C1326.65 91.7 1327.35 91.8 1328 92C1328.67 92.2 1329.23 92.5 1329.68 92.9L1328.96 94.52C1328.55 94.1867 1328.08 93.9267 1327.54 93.74C1327.01 93.5533 1326.49 93.46 1325.98 93.46C1325.29 93.46 1324.78 93.5867 1324.46 93.84C1324.14 94.08 1323.98 94.3933 1323.98 94.78C1323.98 95.0733 1324.08 95.32 1324.26 95.52C1324.46 95.7067 1324.77 95.8467 1325.18 95.94L1327.18 96.32C1328.08 96.4933 1328.75 96.8 1329.2 97.24C1329.67 97.6667 1329.9 98.2533 1329.9 99C1329.9 99.6667 1329.72 100.24 1329.36 100.72C1329 101.2 1328.5 101.567 1327.86 101.82C1327.22 102.073 1326.48 102.2 1325.62 102.2Z" fill="#F0C260"/>
<rect x="1133.5" y="72.5" width="212" height="44" rx="22" stroke="#F0C260"/>
<ellipse cx="658.462" cy="8" rx="8.95138" ry="8" fill="white"/>
<ellipse cx="67.576" cy="72.5" rx="6.15408" ry="5.5" fill="white"/>
<ellipse cx="368.102" cy="124.5" rx="6.15408" ry="5.5" fill="white"/>
<ellipse cx="917.079" cy="124.5" rx="6.15408" ry="5.5" fill="white"/>
</svg>
